<svg xmlns="http://www.w3.org/2000/svg" width="200" height="200" fill="none" viewBox="21 27 157 170"><defs><linearGradient id="helmetGrad" x1="22%" x2="78%" y1="10%" y2="92%"><stop offset="0%" stop-color="#A883FF"/><stop offset="45%" stop-color="#7A57E5"/><stop offset="100%" stop-color="#5832B9"/></linearGradient><linearGradient id="visorGrad" x1="0%" x2="0%" y1="0%" y2="100%"><stop offset="0%" stop-color="#30245B"/><stop offset="100%" stop-color="#17112E"/></linearGradient><linearGradient id="highlightGrad" x1="0%" x2="100%" y1="0%" y2="100%"><stop offset="0%" stop-color="#fff" stop-opacity=".34"/><stop offset="100%" stop-color="#fff" stop-opacity="0"/></linearGradient></defs><ellipse cx="100" cy="105" fill="url(#helmetGrad)" stroke="#2E1A62" stroke-width="3" rx="65" ry="75"/><path fill="none" stroke="#2E1A62" stroke-width="2.5" d="M100 30 Q100 60 100 80"/><path fill="none" stroke="#2E1A62" stroke-width="2" d="M60 50 Q80 70 100 80"/><path fill="none" stroke="#2E1A62" stroke-width="2" d="M140 50 Q120 70 100 80"/><ellipse cx="42" cy="115" fill="url(#helmetGrad)" stroke="#2E1A62" stroke-width="2.5" rx="18" ry="30"/><ellipse cx="158" cy="115" fill="url(#helmetGrad)" stroke="#2E1A62" stroke-width="2.5" rx="18" ry="30"/><path fill="url(#helmetGrad)" stroke="#2E1A62" stroke-width="2" d="M55 145 Q100 185 145 145 L140 165 Q100 195 60 165 Z"/><path fill="none" stroke="#2E1A62" stroke-width="2" d="M70 150 Q100 165 130 150"/><rect width="100" height="55" x="50" y="75" fill="url(#visorGrad)" stroke="#8EF0AA" stroke-width="2" rx="12" ry="12"/><rect width="96" height="51" x="52" y="77" fill="none" stroke="#AAFFD0" stroke-width=".5" opacity=".42" rx="10" ry="10"/><ellipse cx="100" cy="88" fill="#9AF7A8" rx="10" ry="8"/><ellipse cx="100" cy="88" fill="none" stroke="#9AF7A8" stroke-width="1" opacity=".85" rx="10" ry="8"/><ellipse cx="78" cy="112" fill="#9AF7A8" rx="12" ry="10"/><ellipse cx="78" cy="112" fill="none" stroke="#9AF7A8" stroke-width="1" opacity=".85" rx="12" ry="10"/><ellipse cx="122" cy="112" fill="#9AF7A8" rx="12" ry="10"/><ellipse cx="122" cy="112" fill="none" stroke="#9AF7A8" stroke-width="1" opacity=".85" rx="12" ry="10"/><g stroke="#9AF7A8" stroke-width="1.5" opacity=".58"><line x1="92" x2="82" y1="93" y2="105"/><line x1="108" x2="118" y1="93" y2="105"/><line x1="88" x2="112" y1="115" y2="115"/></g><ellipse cx="85" cy="50" fill="url(#highlightGrad)" rx="25" ry="12"/><ellipse cx="130" cy="85" fill="#fff" opacity=".14" rx="8" ry="4"/></svg>