<svg xmlns="http://www.w3.org/2000/svg" width="200" height="200" viewBox="0 0 200 200" fill="none">
  <defs>
    <linearGradient id="helmetGrad" x1="22%" y1="10%" x2="78%" y2="92%">
      <stop offset="0%" stop-color="#A883FF" />
      <stop offset="45%" stop-color="#7A57E5" />
      <stop offset="100%" stop-color="#5832B9" />
    </linearGradient>

    <linearGradient id="visorGrad" x1="0%" y1="0%" x2="0%" y2="100%">
      <stop offset="0%" stop-color="#30245B" />
      <stop offset="100%" stop-color="#17112E" />
    </linearGradient>

    <linearGradient id="highlightGrad" x1="0%" y1="0%" x2="100%" y2="100%">
      <stop offset="0%" stop-color="#ffffff" stop-opacity="0.34" />
      <stop offset="100%" stop-color="#ffffff" stop-opacity="0" />
    </linearGradient>
  </defs>

  <ellipse
    cx="100"
    cy="105"
    rx="65"
    ry="75"
    fill="url(#helmetGrad)"
    stroke="#2E1A62"
    stroke-width="3"
  />

  <path d="M100 30 Q100 60 100 80" stroke="#2E1A62" stroke-width="2.5" fill="none" />
  <path d="M60 50 Q80 70 100 80" stroke="#2E1A62" stroke-width="2" fill="none" />
  <path d="M140 50 Q120 70 100 80" stroke="#2E1A62" stroke-width="2" fill="none" />

  <ellipse
    cx="42"
    cy="115"
    rx="18"
    ry="30"
    fill="url(#helmetGrad)"
    stroke="#2E1A62"
    stroke-width="2.5"
  />

  <ellipse
    cx="158"
    cy="115"
    rx="18"
    ry="30"
    fill="url(#helmetGrad)"
    stroke="#2E1A62"
    stroke-width="2.5"
  />

  <path
    d="M55 145 Q100 185 145 145 L140 165 Q100 195 60 165 Z"
    fill="url(#helmetGrad)"
    stroke="#2E1A62"
    stroke-width="2"
  />

  <path d="M70 150 Q100 165 130 150" stroke="#2E1A62" stroke-width="2" fill="none" />

  <rect
    x="50"
    y="75"
    rx="12"
    ry="12"
    width="100"
    height="55"
    fill="url(#visorGrad)"
    stroke="#8EF0AA"
    stroke-width="2"
  />

  <rect
    x="52"
    y="77"
    rx="10"
    ry="10"
    width="96"
    height="51"
    fill="none"
    stroke="#AAFFD0"
    stroke-width="0.5"
    opacity="0.42"
  />

  <ellipse cx="100" cy="88" rx="10" ry="8" fill="#9AF7A8" />
  <ellipse cx="100" cy="88" rx="10" ry="8" fill="none" stroke="#9AF7A8" stroke-width="1" opacity="0.85" />

  <ellipse cx="78" cy="112" rx="12" ry="10" fill="#9AF7A8" />
  <ellipse cx="78" cy="112" rx="12" ry="10" fill="none" stroke="#9AF7A8" stroke-width="1" opacity="0.85" />

  <ellipse cx="122" cy="112" rx="12" ry="10" fill="#9AF7A8" />
  <ellipse cx="122" cy="112" rx="12" ry="10" fill="none" stroke="#9AF7A8" stroke-width="1" opacity="0.85" />

  <g stroke="#9AF7A8" stroke-width="1.5" opacity="0.58">
    <line x1="92" y1="93" x2="82" y2="105" />
    <line x1="108" y1="93" x2="118" y2="105" />
    <line x1="88" y1="115" x2="112" y2="115" />
  </g>

  <ellipse cx="85" cy="50" rx="25" ry="12" fill="url(#highlightGrad)" />
  <ellipse cx="130" cy="85" rx="8" ry="4" fill="#ffffff" opacity="0.14" />
</svg>
