<svg xmlns="http://www.w3.org/2000/svg" width="64" height="64" viewBox="0 0 64 64">
  <path
    fill="#000"
    fill-rule="evenodd"
    d="M32 6c-10.4 0-17 7.4-17 19v6.5c0 12.8 7.1 21 17 26.5 9.9-5.5 17-13.7 17-26.5V25C49 13.4 42.4 6 32 6Zm-12 16.5A4.5 4.5 0 0 0 15.5 27v6a4.5 4.5 0 0 0 4.5 4.5h24a4.5 4.5 0 0 0 4.5-4.5v-6a4.5 4.5 0 0 0-4.5-4.5H20Z"
  />
  <ellipse cx="11.75" cy="30" rx="4.75" ry="7.75" fill="#000" />
  <ellipse cx="52.25" cy="30" rx="4.75" ry="7.75" fill="#000" />
  <path d="M18 42c2.7 4.8 7.3 8.9 14 12.8C38.7 50.9 43.3 46.8 46 42v2c0 4.6-4.4 9.1-14 14-9.6-4.9-14-9.4-14-14v-2Z" fill="#000" />
  <circle cx="32" cy="27.5" r="3.1" fill="#000" />
  <circle cx="23.5" cy="33.5" r="3.7" fill="#000" />
  <circle cx="40.5" cy="33.5" r="3.7" fill="#000" />
</svg>
