<svg xmlns="http://www.w3.org/2000/svg" width="64" height="64" viewBox="0 0 64 64">
  <path
    fill="#000"
    fill-rule="evenodd"
    d="M32 6C20 6 13 14.5 13 27v7c0 11 7.2 18.9 19 24 11.8-5.1 19-13 19-24v-7C51 14.5 44 6 32 6Zm-12 16.5A4.5 4.5 0 0 0 15.5 27v6A4.5 4.5 0 0 0 20 37.5h24a4.5 4.5 0 0 0 4.5-4.5v-6a4.5 4.5 0 0 0-4.5-4.5H20Z"
  />
  <ellipse cx="12.5" cy="29.5" rx="4.5" ry="7.5" fill="#000" />
  <ellipse cx="51.5" cy="29.5" rx="4.5" ry="7.5" fill="#000" />
  <circle cx="32" cy="28" r="2.9" fill="#000" />
  <circle cx="23.5" cy="33.5" r="3.4" fill="#000" />
  <circle cx="40.5" cy="33.5" r="3.4" fill="#000" />
</svg>
